# xmcd
#
# Track frame offsets:
# 150
# 15249
# 31450
# 43214
# 65531
# 83499
# 108170
# 121885
#
# Disc length: 2070 seconds
#
#
# Revision: 0
# Processed by: cddbd v1.5.1PL0 Copyright (c) Steve Scherf et al.
# Submitted via: FreeRIP 2.30 
#
DISCID=58081408
DTITLE=Fizzy Jam Jar - Homemade Jam
DYEAR=2005
DGENRE=Rock and Roll
TTITLE0=Rolling Revolution
TTITLE1=Champagne
TTITLE2=Funk n' Roll
TTITLE3=Power Of Machines
TTITLE4=Beer Blues
TTITLE5=When The Summer Is Leaving
TTITLE6=Summertime
TTITLE7=By The Road
EXTD=
EXTT0=
EXTT1=
EXTT2=
EXTT3=
EXTT4=
EXTT5=
EXTT6=
EXTT7=
PLAYORDER=
